<?xml version="1.0" encoding="UTF-8"?><svg id="Layer_1" xmlns="http://www.w3.org/2000/svg" viewBox="0 0 306.8 359.68"><defs><style>.cls-1{fill:#fff;}</style></defs><path class="cls-1" d="M288.19,138.27l-46.65,45.56c2.56,8.33,3.89,17.07,3.89,26.01,0,24.01-9.57,46.59-26.96,63.57-17.38,16.98-40.5,26.33-65.08,26.33s-47.7-9.35-65.08-26.33c-17.38-16.98-26.96-39.55-26.96-63.57,0-8.94,1.33-17.68,3.89-26.01l-46.65-45.56C6.74,159.54,0,183.93,0,209.85c0,82.75,68.68,149.83,153.4,149.83s153.4-67.08,153.4-149.83c0-25.92-6.74-50.31-18.6-71.57Z"/><polygon class="cls-1" points="122.72 239.82 184.08 239.82 184.08 144.46 288.53 42.4 245.13 .02 153.43 89.63 61.66 0 18.27 42.38 122.72 144.4 122.72 239.82"/></svg>