<svg version="1.1" viewBox="0.0 0.0 600.0 371.0" fill="none" stroke="none" stroke-linecap="square" stroke-miterlimit="10" width="600" height="371" xmlns:xlink="http://www.w3.org/1999/xlink" xmlns="http://www.w3.org/2000/svg"><path fill="#ffffff" d="M0 0L600.0 0L600.0 371.0L0 371.0L0 0Z" fill-rule="nonzero"/><path fill="#4285f4" d="M300.0 18.55C307.64117 18.55 315.27335 19.074596 322.84268 20.12009L300.0 185.5Z" fill-rule="nonzero"/><path fill="#ea4335" d="M322.84268 20.12009C366.26733 26.118013 405.59067 48.954803 432.32108 83.699036L300.0 185.5Z" fill-rule="nonzero"/><path fill="#fbbc04" d="M432.32108 83.699036C469.4316 131.93538 477.3535 196.5444 452.99582 252.31754C428.63815 308.09067 375.86044 346.1905 315.25507 351.7516L300.0 185.5Z" fill-rule="nonzero"/><path fill="#ff6d01" d="M133.74843 200.75507C129.46011 154.02055 145.04027 107.63931 176.67293 72.97118C208.30559 38.303055 253.06915 18.55 300.0 18.55L300.0 185.5Z" fill-rule="nonzero"/><path fill="#34a853" d="M315.25507 351.7516C271.1624 355.79745 227.26845 342.16193 193.22934 313.84457C159.19025 285.52725 137.79433 244.84773 133.74843 200.75507L300.0 185.5Z" fill-rule="nonzero"/><path fill="#1a1a1a" d="M19.096874 71.332L20.159374 71.23825Q20.2375 71.8945 20.51875 72.30075Q20.8 72.707 21.378124 72.972626Q21.971874 73.222626 22.70625 73.222626Q23.346874 73.222626 23.846874 73.035126Q24.346874 72.832 24.58125 72.503876Q24.83125 72.160126 24.83125 71.7695Q24.83125 71.36325 24.596874 71.066376Q24.3625 70.753876 23.83125 70.55075Q23.471874 70.410126 22.284374 70.128876Q21.1125 69.847626 20.64375 69.597626Q20.01875 69.2695 19.721874 68.80075Q19.425 68.316376 19.425 67.722626Q19.425 67.082 19.784374 66.5195Q20.159374 65.941376 20.8625 65.660126Q21.58125 65.36325 22.440624 65.36325Q23.39375 65.36325 24.128124 65.67575Q24.8625 65.972626 25.253124 66.582Q25.64375 67.17575 25.675 67.92575L24.58125 68.003876Q24.4875 67.191376 23.971874 66.785126Q23.471874 66.36325 22.4875 66.36325Q21.45625 66.36325 20.9875 66.73825Q20.51875 67.11325 20.51875 67.6445Q20.51875 68.11325 20.846874 68.410126Q21.175 68.707 22.55 69.0195Q23.940624 69.332 24.45625 69.566376Q25.20625 69.92575 25.565624 70.457Q25.925 70.972626 25.925 71.67575Q25.925 72.36325 25.534374 72.972626Q25.14375 73.566376 24.409374 73.910126Q23.675 74.23825 22.753124 74.23825Q21.58125 74.23825 20.784374 73.910126Q20.003124 73.566376 19.55 72.878876Q19.1125 72.191376 19.096874 71.332ZM31.596874 72.097626L32.690624 72.222626Q32.440624 73.17575 31.7375 73.707Q31.034374 74.23825 29.95625 74.23825Q28.596874 74.23825 27.784374 73.3945Q26.9875 72.55075 26.9875 71.035126Q26.9875 69.472626 27.8 68.61325Q28.6125 67.73825 29.89375 67.73825Q31.14375 67.73825 31.925 68.582Q32.721874 69.42575 32.721874 70.972626Q32.721874 71.066376 32.721874 71.253876L28.08125 71.253876Q28.14375 72.285126 28.659374 72.832Q29.175 73.36325 29.95625 73.36325Q30.534374 73.36325 30.940624 73.066376Q31.3625 72.753876 31.596874 72.097626ZM28.14375 70.3945L31.6125 70.3945Q31.55 69.597626 31.221874 69.207Q30.70625 68.597626 29.909374 68.597626Q29.175 68.597626 28.675 69.082Q28.190624 69.566376 28.14375 70.3945ZM38.409374 71.816376L39.440624 71.957Q39.26875 73.0195 38.565624 73.628876Q37.8625 74.23825 36.846874 74.23825Q35.565624 74.23825 34.784374 73.410126Q34.01875 72.566376 34.01875 71.003876Q34.01875 70.003876 34.346874 69.253876Q34.690624 68.48825 35.3625 68.11325Q36.05 67.73825 36.8625 67.73825Q37.8625 67.73825 38.503124 68.253876Q39.159374 68.753876 39.346874 69.707L38.315624 69.86325Q38.175 69.23825 37.8 68.92575Q37.425 68.597626 36.89375 68.597626Q36.096874 68.597626 35.596874 69.17575Q35.096874 69.73825 35.096874 70.972626Q35.096874 72.23825 35.58125 72.80075Q36.065624 73.36325 36.83125 73.36325Q37.45625 73.36325 37.8625 72.98825Q38.284374 72.61325 38.409374 71.816376ZM44.425 74.097626L44.425 73.17575Q43.690624 74.23825 42.440624 74.23825Q41.89375 74.23825 41.409374 74.035126Q40.940624 73.816376 40.70625 73.503876Q40.471874 73.17575 40.378124 72.707Q40.315624 72.410126 40.315624 71.722626L40.315624 67.878876L41.378124 67.878876L41.378124 71.332Q41.378124 72.1445 41.440624 72.441376Q41.534374 72.847626 41.846874 73.097626Q42.175 73.332 42.659374 73.332Q43.128124 73.332 43.534374 73.097626Q43.95625 72.847626 44.128124 72.42575Q44.315624 72.003876 44.315624 71.207L44.315624 67.878876L45.3625 67.878876L45.3625 74.097626L44.425 74.097626ZM47.33125 74.097626L47.33125 67.878876L48.284374 67.878876L48.284374 68.816376Q48.64375 68.160126 48.940624 67.957Q49.253124 67.73825 49.628124 67.73825Q50.159374 67.73825 50.70625 68.066376L50.346874 69.05075Q49.95625 68.816376 49.58125 68.816376Q49.221874 68.816376 48.940624 69.035126Q48.675 69.23825 48.565624 69.61325Q48.378124 70.17575 48.378124 70.832L48.378124 74.097626L47.33125 74.097626ZM51.346874 66.722626L51.346874 65.503876L52.409374 65.503876L52.409374 66.722626L51.346874 66.722626ZM51.346874 74.097626L51.346874 67.878876L52.409374 67.878876L52.409374 74.097626L51.346874 74.097626ZM56.64375 73.160126L56.8 74.082Q56.346874 74.17575 56.003124 74.17575Q55.425 74.17575 55.1125 74.003876Q54.8 73.816376 54.659374 73.5195Q54.534374 73.222626 54.534374 72.2695L54.534374 68.691376L53.76875 68.691376L53.76875 67.878876L54.534374 67.878876L54.534374 66.332L55.58125 65.707L55.58125 67.878876L56.64375 67.878876L56.64375 68.691376L55.58125 68.691376L55.58125 72.332Q55.58125 72.785126 55.628124 72.910126Q55.690624 73.035126 55.815624 73.11325Q55.940624 73.191376 56.175 73.191376Q56.3625 73.191376 56.64375 73.160126ZM57.3 76.48825L57.175 75.503876Q57.51875 75.597626 57.784374 75.597626Q58.128124 75.597626 58.33125 75.472626Q58.55 75.36325 58.690624 75.160126Q58.784374 74.98825 59.01875 74.36325Q59.034374 74.285126 59.1125 74.11325L56.7375 67.878876L57.878124 67.878876L59.175 71.472626Q59.425 72.160126 59.628124 72.92575Q59.815624 72.191376 60.065624 71.503876L61.39375 67.878876L62.440624 67.878876L60.08125 74.207Q59.690624 75.222626 59.4875 75.61325Q59.20625 76.1445 58.83125 76.378876Q58.471874 76.628876 57.971874 76.628876Q57.675 76.628876 57.3 76.48825ZM70.40938 73.332Q69.81563 73.832 69.26875 74.035126Q68.7375 74.23825 68.1125 74.23825Q67.08125 74.23825 66.53438 73.73825Q65.9875 73.23825 65.9875 72.457Q65.9875 72.003876 66.19063 71.628876Q66.39375 71.23825 66.7375 71.0195Q67.08125 70.785126 67.50313 70.67575Q67.8 70.582 68.44063 70.503876Q69.70625 70.36325 70.31563 70.1445Q70.31563 69.92575 70.31563 69.878876Q70.31563 69.222626 70.01875 68.957Q69.6125 68.61325 68.81563 68.61325Q68.08125 68.61325 67.72188 68.878876Q67.3625 69.128876 67.19063 69.785126L66.15938 69.6445Q66.3 68.98825 66.62813 68.582Q66.95625 68.17575 67.56563 67.957Q68.175 67.73825 68.97188 67.73825Q69.76875 67.73825 70.26875 67.92575Q70.76875 68.11325 71.00313 68.3945Q71.2375 68.67575 71.33125 69.11325Q71.37813 69.378876 71.37813 70.082L71.37813 71.48825Q71.37813 72.957 71.44063 73.347626Q71.51875 73.73825 71.72188 74.097626L70.6125 74.097626Q70.45625 73.7695 70.40938 73.332ZM70.31563 70.972626Q69.7375 71.207 68.59688 71.378876Q67.94063 71.472626 67.675 71.597626Q67.40938 71.707 67.25313 71.92575Q67.1125 72.1445 67.1125 72.42575Q67.1125 72.847626 67.425 73.128876Q67.75313 73.410126 68.3625 73.410126Q68.97188 73.410126 69.44063 73.1445Q69.925 72.878876 70.14375 72.410126Q70.31563 72.05075 70.31563 71.36325L70.31563 70.972626ZM77.425 74.097626L77.425 73.17575Q76.69063 74.23825 75.44063 74.23825Q74.89375 74.23825 74.40938 74.035126Q73.94063 73.816376 73.70625 73.503876Q73.47188 73.17575 73.37813 72.707Q73.31563 72.410126 73.31563 71.722626L73.31563 67.878876L74.37813 67.878876L74.37813 71.332Q74.37813 72.1445 74.44063 72.441376Q74.53438 72.847626 74.84688 73.097626Q75.175 73.332 75.65938 73.332Q76.12813 73.332 76.53438 73.097626Q76.95625 72.847626 77.12813 72.42575Q77.31563 72.003876 77.31563 71.207L77.31563 67.878876L78.3625 67.878876L78.3625 74.097626L77.425 74.097626ZM84.37813 74.097626L84.37813 73.316376Q83.78438 74.23825 82.64375 74.23825Q81.89375 74.23825 81.26875 73.832Q80.64375 73.410126 80.3 72.67575Q79.95625 71.941376 79.95625 70.98825Q79.95625 70.066376 80.26875 69.30075Q80.58125 68.535126 81.20625 68.1445Q81.83125 67.73825 82.59688 67.73825Q83.15938 67.73825 83.59688 67.972626Q84.03438 68.207 84.31563 68.582L84.31563 65.503876L85.3625 65.503876L85.3625 74.097626L84.37813 74.097626ZM81.05 70.98825Q81.05 72.191376 81.55 72.785126Q82.05 73.36325 82.7375 73.36325Q83.425 73.36325 83.90938 72.80075Q84.39375 72.23825 84.39375 71.082Q84.39375 69.80075 83.89375 69.207Q83.40938 68.61325 82.69063 68.61325Q81.9875 68.61325 81.51875 69.191376Q81.05 69.753876 81.05 70.98825ZM87.34688 66.722626L87.34688 65.503876L88.40938 65.503876L88.40938 66.722626L87.34688 66.722626ZM87.34688 74.097626L87.34688 67.878876L88.40938 67.878876L88.40938 74.097626L87.34688 74.097626ZM92.64375 73.160126L92.8 74.082Q92.34688 74.17575 92.00313 74.17575Q91.425 74.17575 91.1125 74.003876Q90.8 73.816376 90.65938 73.5195Q90.53438 73.222626 90.53438 72.2695L90.53438 68.691376L89.76875 68.691376L89.76875 67.878876L90.53438 67.878876L90.53438 66.332L91.58125 65.707L91.58125 67.878876L92.64375 67.878876L92.64375 68.691376L91.58125 68.691376L91.58125 72.332Q91.58125 72.785126 91.62813 72.910126Q91.69063 73.035126 91.81563 73.11325Q91.94063 73.191376 92.175 73.191376Q92.3625 73.191376 92.64375 73.160126ZM92.925 72.23825L93.95625 72.082Q94.05 72.707 94.44063 73.035126Q94.84688 73.36325 95.58125 73.36325Q96.3 73.36325 96.64375 73.082Q97.00313 72.785126 97.00313 72.378876Q97.00313 72.0195 96.69063 71.816376Q96.47188 71.67575 95.6125 71.457Q94.45625 71.160126 94.00313 70.957Q93.56563 70.73825 93.33125 70.36325Q93.09688 69.98825 93.09688 69.5195Q93.09688 69.11325 93.28438 68.753876Q93.47188 68.3945 93.8 68.160126Q94.05 67.98825 94.47188 67.86325Q94.89375 67.73825 95.39375 67.73825Q96.1125 67.73825 96.65938 67.957Q97.22188 68.160126 97.4875 68.5195Q97.75313 68.878876 97.84688 69.472626L96.81563 69.61325Q96.75313 69.1445 96.40938 68.878876Q96.08125 68.597626 95.45625 68.597626Q94.7375 68.597626 94.425 68.847626Q94.1125 69.082 94.1125 69.410126Q94.1125 69.61325 94.2375 69.7695Q94.37813 69.941376 94.64375 70.05075Q94.8 70.11325 95.58125 70.316376Q96.70625 70.628876 97.14375 70.816376Q97.58125 71.003876 97.83125 71.36325Q98.08125 71.722626 98.08125 72.2695Q98.08125 72.80075 97.76875 73.2695Q97.47188 73.722626 96.89375 73.98825Q96.31563 74.23825 95.58125 74.23825Q94.3625 74.23825 93.72188 73.73825Q93.09688 73.222626 92.925 72.23825Z" fill-rule="nonzero"/><path fill="#9e9e9e" d="M24.596874 90.082L24.596874 91.097626L18.909374 91.097626Q18.909374 90.722626 19.034374 90.36325Q19.253124 89.785126 19.721874 89.222626Q20.20625 88.660126 21.1125 87.92575Q22.51875 86.7695 23.003124 86.097626Q23.503124 85.42575 23.503124 84.832Q23.503124 84.207 23.05 83.785126Q22.596874 83.347626 21.878124 83.347626Q21.1125 83.347626 20.659374 83.80075Q20.20625 84.253876 20.190624 85.066376L19.1125 84.957Q19.221874 83.73825 19.940624 83.11325Q20.675 82.472626 21.909374 82.472626Q23.14375 82.472626 23.8625 83.160126Q24.58125 83.847626 24.58125 84.86325Q24.58125 85.378876 24.3625 85.878876Q24.159374 86.36325 23.659374 86.92575Q23.175 87.472626 22.05 88.42575Q21.096874 89.222626 20.815624 89.5195Q20.55 89.80075 20.378124 90.082L24.596874 90.082ZM31.51875 84.61325L30.471874 84.691376Q30.33125 84.066376 30.08125 83.785126Q29.64375 83.332 29.01875 83.332Q28.51875 83.332 28.128124 83.61325Q27.64375 83.98825 27.346874 84.691376Q27.065624 85.378876 27.05 86.660126Q27.425 86.082 27.971874 85.80075Q28.534374 85.5195 29.14375 85.5195Q30.190624 85.5195 30.925 86.30075Q31.675 87.082 31.675 88.30075Q31.675 89.11325 31.315624 89.816376Q30.971874 90.503876 30.3625 90.878876Q29.753124 91.23825 28.9875 91.23825Q27.659374 91.23825 26.83125 90.2695Q26.003124 89.30075 26.003124 87.082Q26.003124 84.582 26.925 83.457Q27.721874 82.472626 29.08125 82.472626Q30.096874 82.472626 30.7375 83.05075Q31.39375 83.61325 31.51875 84.61325ZM27.221874 88.316376Q27.221874 88.86325 27.440624 89.36325Q27.675 89.847626 28.08125 90.11325Q28.503124 90.378876 28.971874 90.378876Q29.628124 90.378876 30.1125 89.847626Q30.596874 89.30075 30.596874 88.378876Q30.596874 87.48825 30.1125 86.972626Q29.64375 86.457 28.925 86.457Q28.20625 86.457 27.70625 86.972626Q27.221874 87.48825 27.221874 88.316376ZM33.64375 91.097626L33.64375 89.8945L34.846874 89.8945L34.846874 91.097626L33.64375 91.097626ZM36.05 88.847626L37.159374 88.753876Q37.284374 89.566376 37.721874 89.972626Q38.175 90.378876 38.815624 90.378876Q39.565624 90.378876 40.096874 89.80075Q40.628124 89.222626 40.628124 88.285126Q40.628124 87.378876 40.1125 86.86325Q39.6125 86.332 38.784374 86.332Q38.284374 86.332 37.8625 86.566376Q37.45625 86.80075 37.221874 87.160126L36.2375 87.035126L37.065624 82.628876L41.346874 82.628876L41.346874 83.628876L37.909374 83.628876L37.45625 85.941376Q38.221874 85.3945 39.065624 85.3945Q40.190624 85.3945 40.95625 86.17575Q41.7375 86.957 41.7375 88.191376Q41.7375 89.347626 41.065624 90.207Q40.2375 91.23825 38.815624 91.23825Q37.64375 91.23825 36.89375 90.582Q36.159374 89.92575 36.05 88.847626ZM43.253124 84.566376Q43.253124 83.6445 43.70625 83.003876Q44.175 82.36325 45.05 82.36325Q45.8625 82.36325 46.39375 82.941376Q46.925 83.5195 46.925 84.628876Q46.925 85.722626 46.378124 86.316376Q45.846874 86.8945 45.065624 86.8945Q44.284374 86.8945 43.76875 86.316376Q43.253124 85.73825 43.253124 84.566376ZM45.08125 83.082Q44.690624 83.082 44.425 83.42575Q44.175 83.7695 44.175 84.67575Q44.175 85.503876 44.425 85.847626Q44.690624 86.17575 45.08125 86.17575Q45.4875 86.17575 45.7375 85.832Q46.003124 85.48825 46.003124 84.597626Q46.003124 83.753876 45.7375 83.42575Q45.471874 83.082 45.08125 83.082ZM45.08125 91.410126L49.784374 82.36325L50.64375 82.36325L45.95625 91.410126L45.08125 91.410126ZM48.8 89.082Q48.8 88.160126 49.253124 87.5195Q49.721874 86.878876 50.6125 86.878876Q51.425 86.878876 51.95625 87.457Q52.4875 88.0195 52.4875 89.1445Q52.4875 90.23825 51.940624 90.832Q51.409374 91.410126 50.6125 91.410126Q49.846874 91.410126 49.315624 90.832Q48.8 90.253876 48.8 89.082ZM50.64375 87.597626Q50.2375 87.597626 49.971874 87.941376Q49.721874 88.285126 49.721874 89.191376Q49.721874 90.003876 49.9875 90.347626Q50.253124 90.691376 50.64375 90.691376Q51.034374 90.691376 51.3 90.347626Q51.565624 90.003876 51.565624 89.097626Q51.565624 88.2695 51.3 87.941376Q51.034374 87.597626 50.64375 87.597626Z" fill-rule="nonzero"/><path stroke="#757575" stroke-width="1.0" stroke-linecap="butt" d="M18.55 78.597626L127.05 78.597626L182.83928 78.597626" fill-rule="nonzero"/><path fill="#9e9e9e" d="M184.83928 78.597626C184.83928 77.49306 183.94385 76.597626 182.83928 76.597626C181.73471 76.597626 180.83928 77.49306 180.83928 78.597626C180.83928 79.702194 181.73471 80.597626 182.83928 80.597626C183.94385 80.597626 184.83928 79.702194 184.83928 78.597626" fill-rule="nonzero"/><path fill="#1a1a1a" d="M19.425 302.92734L19.425 294.3336L22.659374 294.3336Q23.64375 294.3336 24.2375 294.5992Q24.83125 294.86484 25.159374 295.4117Q25.503124 295.94296 25.503124 296.5367Q25.503124 297.0836 25.20625 297.56796Q24.909374 298.05234 24.3 298.3492Q25.08125 298.5836 25.4875 299.1461Q25.909374 299.69296 25.909374 300.44296Q25.909374 301.0367 25.659374 301.56796Q25.409374 302.0836 25.034374 302.36484Q24.659374 302.6461 24.08125 302.7867Q23.51875 302.92734 22.70625 302.92734L19.425 302.92734ZM20.565624 297.94296L22.425 297.94296Q23.175 297.94296 23.503124 297.8492Q23.940624 297.7242 24.159374 297.42734Q24.378124 297.11484 24.378124 296.6617Q24.378124 296.23984 24.175 295.9117Q23.971874 295.5836 23.58125 295.4742Q23.20625 295.3492 22.284374 295.3492L20.565624 295.3492L20.565624 297.94296ZM20.565624 301.9117L22.70625 301.9117Q23.253124 301.9117 23.471874 301.86484Q23.878124 301.80234 24.128124 301.6461Q24.39375 301.4742 24.565624 301.1617Q24.7375 300.8492 24.7375 300.44296Q24.7375 299.9586 24.4875 299.5992Q24.253124 299.23984 23.815624 299.0992Q23.378124 298.9586 22.55 298.9586L20.565624 298.9586L20.565624 301.9117ZM31.425 302.92734L31.425 302.00546Q30.690624 303.06796 29.440624 303.06796Q28.89375 303.06796 28.409374 302.86484Q27.940624 302.6461 27.70625 302.3336Q27.471874 302.00546 27.378124 301.5367Q27.315624 301.23984 27.315624 300.55234L27.315624 296.7086L28.378124 296.7086L28.378124 300.1617Q28.378124 300.9742 28.440624 301.2711Q28.534374 301.67734 28.846874 301.92734Q29.175 302.1617 29.659374 302.1617Q30.128124 302.1617 30.534374 301.92734Q30.95625 301.67734 31.128124 301.25546Q31.315624 300.8336 31.315624 300.0367L31.315624 296.7086L32.3625 296.7086L32.3625 302.92734L31.425 302.92734ZM34.14375 303.44296L35.175 303.5992Q35.2375 304.06796 35.534374 304.2867Q35.925 304.5836 36.596874 304.5836Q37.33125 304.5836 37.721874 304.2867Q38.128124 303.98984 38.26875 303.4742Q38.3625 303.1461 38.346874 302.11484Q37.659374 302.92734 36.628124 302.92734Q35.346874 302.92734 34.64375 302.00546Q33.940624 301.06796 33.940624 299.7867Q33.940624 298.8961 34.253124 298.1461Q34.58125 297.38046 35.190624 296.9742Q35.8 296.56796 36.628124 296.56796Q37.7375 296.56796 38.45625 297.4586L38.45625 296.7086L39.425 296.7086L39.425 302.0836Q39.425 303.5367 39.128124 304.1461Q38.83125 304.75546 38.190624 305.0992Q37.55 305.4586 36.6125 305.4586Q35.503124 305.4586 34.815624 304.9586Q34.128124 304.4586 34.14375 303.44296ZM35.01875 299.7086Q35.01875 300.92734 35.503124 301.48984Q35.9875 302.05234 36.721874 302.05234Q37.45625 302.05234 37.940624 301.48984Q38.440624 300.92734 38.440624 299.73984Q38.440624 298.5992 37.925 298.0211Q37.425 297.44296 36.70625 297.44296Q36.003124 297.44296 35.503124 298.0211Q35.01875 298.5836 35.01875 299.7086ZM45.315624 302.92734L44.33125 302.92734L44.33125 294.3336L45.39375 294.3336L45.39375 297.3961Q46.065624 296.56796 47.096874 296.56796Q47.675 296.56796 48.175 296.80234Q48.690624 297.0211 49.01875 297.44296Q49.3625 297.86484 49.55 298.4586Q49.7375 299.05234 49.7375 299.7242Q49.7375 301.31796 48.940624 302.19296Q48.14375 303.06796 47.05 303.06796Q45.940624 303.06796 45.315624 302.1461L45.315624 302.92734ZM45.3 299.7711Q45.3 300.88046 45.6125 301.38046Q46.1125 302.19296 46.95625 302.19296Q47.64375 302.19296 48.14375 301.5992Q48.659374 301.00546 48.659374 299.80234Q48.659374 298.5836 48.175 298.00546Q47.690624 297.42734 47.003124 297.42734Q46.315624 297.42734 45.8 298.0367Q45.3 298.63046 45.3 299.7711ZM50.95625 299.81796Q50.95625 298.0836 51.909374 297.25546Q52.70625 296.56796 53.8625 296.56796Q55.14375 296.56796 55.95625 297.4117Q56.784374 298.23984 56.784374 299.7242Q56.784374 300.92734 56.425 301.61484Q56.065624 302.30234 55.3625 302.69296Q54.675 303.06796 53.8625 303.06796Q52.565624 303.06796 51.753124 302.23984Q50.95625 301.3961 50.95625 299.81796ZM52.034374 299.81796Q52.034374 301.00546 52.55 301.5992Q53.08125 302.19296 53.8625 302.19296Q54.659374 302.19296 55.175 301.5992Q55.690624 301.00546 55.690624 299.7867Q55.690624 298.63046 55.159374 298.0367Q54.64375 297.44296 53.8625 297.44296Q53.08125 297.44296 52.55 298.0367Q52.034374 298.61484 52.034374 299.81796ZM62.425 302.92734L62.425 302.00546Q61.690624 303.06796 60.440624 303.06796Q59.89375 303.06796 59.409374 302.86484Q58.940624 302.6461 58.70625 302.3336Q58.471874 302.00546 58.378124 301.5367Q58.315624 301.23984 58.315624 300.55234L58.315624 296.7086L59.378124 296.7086L59.378124 300.1617Q59.378124 300.9742 59.440624 301.2711Q59.534374 301.67734 59.846874 301.92734Q60.175 302.1617 60.659374 302.1617Q61.128124 302.1617 61.534374 301.92734Q61.95625 301.67734 62.128124 301.25546Q62.315624 300.8336 62.315624 300.0367L62.315624 296.7086L63.3625 296.7086L63.3625 302.92734L62.425 302.92734ZM65.34688 302.92734L65.34688 296.7086L66.28438 296.7086L66.28438 297.5836Q66.97188 296.56796 68.26875 296.56796Q68.83125 296.56796 69.3 296.7711Q69.78438 296.9742 70.01875 297.30234Q70.25313 297.63046 70.34688 298.06796Q70.39375 298.36484 70.39375 299.0992L70.39375 302.92734L69.34688 302.92734L69.34688 299.1461Q69.34688 298.48984 69.22188 298.17734Q69.09688 297.86484 68.78438 297.67734Q68.47188 297.4742 68.05 297.4742Q67.37813 297.4742 66.87813 297.9117Q66.39375 298.3336 66.39375 299.5211L66.39375 302.92734L65.34688 302.92734ZM74.64375 301.98984L74.8 302.9117Q74.34688 303.00546 74.00313 303.00546Q73.425 303.00546 73.1125 302.8336Q72.8 302.6461 72.65938 302.3492Q72.53438 302.05234 72.53438 301.0992L72.53438 297.5211L71.76875 297.5211L71.76875 296.7086L72.53438 296.7086L72.53438 295.1617L73.58125 294.5367L73.58125 296.7086L74.64375 296.7086L74.64375 297.5211L73.58125 297.5211L73.58125 301.1617Q73.58125 301.61484 73.62813 301.73984Q73.69063 301.86484 73.81563 301.94296Q73.94063 302.0211 74.175 302.0211Q74.3625 302.0211 74.64375 301.98984ZM75.34688 295.55234L75.34688 294.3336L76.40938 294.3336L76.40938 295.55234L75.34688 295.55234ZM75.34688 302.92734L75.34688 296.7086L76.40938 296.7086L76.40938 302.92734L75.34688 302.92734ZM82.59688 300.92734L83.69063 301.05234Q83.44063 302.00546 82.7375 302.5367Q82.03438 303.06796 80.95625 303.06796Q79.59688 303.06796 78.78438 302.2242Q77.9875 301.38046 77.9875 299.86484Q77.9875 298.30234 78.8 297.44296Q79.6125 296.56796 80.89375 296.56796Q82.14375 296.56796 82.925 297.4117Q83.72188 298.25546 83.72188 299.80234Q83.72188 299.8961 83.72188 300.0836L79.08125 300.0836Q79.14375 301.11484 79.65938 301.6617Q80.175 302.19296 80.95625 302.19296Q81.53438 302.19296 81.94063 301.8961Q82.3625 301.5836 82.59688 300.92734ZM79.14375 299.2242L82.6125 299.2242Q82.55 298.42734 82.22188 298.0367Q81.70625 297.42734 80.90938 297.42734Q80.175 297.42734 79.675 297.9117Q79.19063 298.3961 79.14375 299.2242ZM84.925 301.06796L85.95625 300.9117Q86.05 301.5367 86.44063 301.86484Q86.84688 302.19296 87.58125 302.19296Q88.3 302.19296 88.64375 301.9117Q89.00313 301.61484 89.00313 301.2086Q89.00313 300.8492 88.69063 300.6461Q88.47188 300.50546 87.6125 300.2867Q86.45625 299.98984 86.00313 299.7867Q85.56563 299.56796 85.33125 299.19296Q85.09688 298.81796 85.09688 298.3492Q85.09688 297.94296 85.28438 297.5836Q85.47188 297.2242 85.8 296.98984Q86.05 296.81796 86.47188 296.69296Q86.89375 296.56796 87.39375 296.56796Q88.1125 296.56796 88.65938 296.7867Q89.22188 296.98984 89.4875 297.3492Q89.75313 297.7086 89.84688 298.30234L88.81563 298.44296Q88.75313 297.9742 88.40938 297.7086Q88.08125 297.42734 87.45625 297.42734Q86.7375 297.42734 86.425 297.67734Q86.1125 297.9117 86.1125 298.23984Q86.1125 298.44296 86.2375 298.5992Q86.37813 298.7711 86.64375 298.88046Q86.8 298.94296 87.58125 299.1461Q88.70625 299.4586 89.14375 299.6461Q89.58125 299.8336 89.83125 300.19296Q90.08125 300.55234 90.08125 301.0992Q90.08125 301.63046 89.76875 302.0992Q89.47188 302.55234 88.89375 302.81796Q88.31563 303.06796 87.58125 303.06796Q86.3625 303.06796 85.72188 302.56796Q85.09688 302.05234 84.925 301.06796Z" fill-rule="nonzero"/><path fill="#9e9e9e" d="M24.596874 318.9117L24.596874 319.92734L18.909374 319.92734Q18.909374 319.55234 19.034374 319.19296Q19.253124 318.61484 19.721874 318.05234Q20.20625 317.48984 21.1125 316.75546Q22.51875 315.5992 23.003124 314.92734Q23.503124 314.25546 23.503124 313.6617Q23.503124 313.0367 23.05 312.61484Q22.596874 312.17734 21.878124 312.17734Q21.1125 312.17734 20.659374 312.63046Q20.20625 313.0836 20.190624 313.8961L19.1125 313.7867Q19.221874 312.56796 19.940624 311.94296Q20.675 311.30234 21.909374 311.30234Q23.14375 311.30234 23.8625 311.98984Q24.58125 312.67734 24.58125 313.69296Q24.58125 314.2086 24.3625 314.7086Q24.159374 315.19296 23.659374 315.75546Q23.175 316.30234 22.05 317.25546Q21.096874 318.05234 20.815624 318.3492Q20.55 318.63046 20.378124 318.9117L24.596874 318.9117ZM26.05 317.67734L27.159374 317.5836Q27.284374 318.3961 27.721874 318.80234Q28.175 319.2086 28.815624 319.2086Q29.565624 319.2086 30.096874 318.63046Q30.628124 318.05234 30.628124 317.11484Q30.628124 316.2086 30.1125 315.69296Q29.6125 315.1617 28.784374 315.1617Q28.284374 315.1617 27.8625 315.3961Q27.45625 315.63046 27.221874 315.98984L26.2375 315.86484L27.065624 311.4586L31.346874 311.4586L31.346874 312.4586L27.909374 312.4586L27.45625 314.7711Q28.221874 314.2242 29.065624 314.2242Q30.190624 314.2242 30.95625 315.00546Q31.7375 315.7867 31.7375 317.0211Q31.7375 318.17734 31.065624 319.0367Q30.2375 320.06796 28.815624 320.06796Q27.64375 320.06796 26.89375 319.4117Q26.159374 318.75546 26.05 317.67734ZM33.64375 319.92734L33.64375 318.7242L34.846874 318.7242L34.846874 319.92734L33.64375 319.92734ZM36.05 315.69296Q36.05 314.1617 36.3625 313.23984Q36.675 312.30234 37.284374 311.80234Q37.909374 311.30234 38.846874 311.30234Q39.534374 311.30234 40.05 311.5836Q40.58125 311.86484 40.925 312.3961Q41.26875 312.9117 41.45625 313.6617Q41.64375 314.4117 41.64375 315.69296Q41.64375 317.2086 41.33125 318.13046Q41.034374 319.05234 40.409374 319.56796Q39.8 320.06796 38.846874 320.06796Q37.6125 320.06796 36.89375 319.17734Q36.05 318.11484 36.05 315.69296ZM37.128124 315.69296Q37.128124 317.80234 37.628124 318.50546Q38.128124 319.2086 38.846874 319.2086Q39.58125 319.2086 40.065624 318.50546Q40.565624 317.80234 40.565624 315.69296Q40.565624 313.56796 40.065624 312.88046Q39.58125 312.17734 38.83125 312.17734Q38.1125 312.17734 37.675 312.7867Q37.128124 313.56796 37.128124 315.69296ZM43.253124 313.3961Q43.253124 312.4742 43.70625 311.8336Q44.175 311.19296 45.05 311.19296Q45.8625 311.19296 46.39375 311.7711Q46.925 312.3492 46.925 313.4586Q46.925 314.55234 46.378124 315.1461Q45.846874 315.7242 45.065624 315.7242Q44.284374 315.7242 43.76875 315.1461Q43.253124 314.56796 43.253124 313.3961ZM45.08125 311.9117Q44.690624 311.9117 44.425 312.25546Q44.175 312.5992 44.175 313.50546Q44.175 314.3336 44.425 314.67734Q44.690624 315.00546 45.08125 315.00546Q45.4875 315.00546 45.7375 314.6617Q46.003124 314.31796 46.003124 313.42734Q46.003124 312.5836 45.7375 312.25546Q45.471874 311.9117 45.08125 311.9117ZM45.08125 320.23984L49.784374 311.19296L50.64375 311.19296L45.95625 320.23984L45.08125 320.23984ZM48.8 317.9117Q48.8 316.98984 49.253124 316.3492Q49.721874 315.7086 50.6125 315.7086Q51.425 315.7086 51.95625 316.2867Q52.4875 316.8492 52.4875 317.9742Q52.4875 319.06796 51.940624 319.6617Q51.409374 320.23984 50.6125 320.23984Q49.846874 320.23984 49.315624 319.6617Q48.8 319.0836 48.8 317.9117ZM50.64375 316.42734Q50.2375 316.42734 49.971874 316.7711Q49.721874 317.11484 49.721874 318.0211Q49.721874 318.8336 49.9875 319.17734Q50.253124 319.5211 50.64375 319.5211Q51.034374 319.5211 51.3 319.17734Q51.565624 318.8336 51.565624 317.92734Q51.565624 317.0992 51.3 316.7711Q51.034374 316.42734 50.64375 316.42734Z" fill-rule="nonzero"/><path stroke="#757575" stroke-width="1.0" stroke-linecap="butt" d="M18.55 307.42734L127.05 307.42734L198.56789 307.42734" fill-rule="nonzero"/><path fill="#9e9e9e" d="M200.56789 307.42734C200.56789 306.32278 199.67245 305.42734 198.56789 305.42734C197.4633 305.42734 196.56789 306.32278 196.56789 307.42734C196.56789 308.53192 197.4633 309.42734 198.56789 309.42734C199.67245 309.42734 200.56789 308.53192 200.56789 307.42734" fill-rule="nonzero"/><path fill="#1a1a1a" d="M517.41876 29.55L517.41876 20.95625L518.54376 20.95625L518.54376 24.4875L523.0125 24.4875L523.0125 20.95625L524.15314 20.95625L524.15314 29.55L523.0125 29.55L523.0125 25.503124L518.54376 25.503124L518.54376 29.55L517.41876 29.55ZM530.3094 28.784374Q529.71564 29.284374 529.16876 29.4875Q528.6375 29.690624 528.0125 29.690624Q526.98126 29.690624 526.4344 29.190624Q525.8875 28.690624 525.8875 27.909374Q525.8875 27.45625 526.09064 27.08125Q526.29376 26.690624 526.6375 26.471874Q526.98126 26.2375 527.40314 26.128124Q527.7 26.034374 528.34064 25.95625Q529.60626 25.815624 530.21564 25.596874Q530.21564 25.378124 530.21564 25.33125Q530.21564 24.675 529.91876 24.409374Q529.5125 24.065624 528.71564 24.065624Q527.98126 24.065624 527.6219 24.33125Q527.2625 24.58125 527.09064 25.2375L526.0594 25.096874Q526.2 24.440624 526.52814 24.034374Q526.85626 23.628124 527.46564 23.409374Q528.075 23.190624 528.8719 23.190624Q529.66876 23.190624 530.16876 23.378124Q530.66876 23.565624 530.90314 23.846874Q531.1375 24.128124 531.23126 24.565624Q531.27814 24.83125 531.27814 25.534374L531.27814 26.940624Q531.27814 28.409374 531.34064 28.8Q531.41876 29.190624 531.6219 29.55L530.5125 29.55Q530.35626 29.221874 530.3094 28.784374ZM530.21564 26.425Q529.6375 26.659374 528.4969 26.83125Q527.84064 26.925 527.575 27.05Q527.3094 27.159374 527.15314 27.378124Q527.0125 27.596874 527.0125 27.878124Q527.0125 28.3 527.325 28.58125Q527.65314 28.8625 528.2625 28.8625Q528.8719 28.8625 529.34064 28.596874Q529.825 28.33125 530.04376 27.8625Q530.21564 27.503124 530.21564 26.815624L530.21564 26.425ZM537.3094 27.26875L538.34064 27.409374Q538.16876 28.471874 537.46564 29.08125Q536.7625 29.690624 535.7469 29.690624Q534.46564 29.690624 533.6844 28.8625Q532.91876 28.01875 532.91876 26.45625Q532.91876 25.45625 533.2469 24.70625Q533.59064 23.940624 534.2625 23.565624Q534.95 23.190624 535.7625 23.190624Q536.7625 23.190624 537.40314 23.70625Q538.0594 24.20625 538.2469 25.159374L537.21564 25.315624Q537.075 24.690624 536.7 24.378124Q536.325 24.05 535.79376 24.05Q534.9969 24.05 534.4969 24.628124Q533.9969 25.190624 533.9969 26.425Q533.9969 27.690624 534.48126 28.253124Q534.96564 28.815624 535.73126 28.815624Q536.35626 28.815624 536.7625 28.440624Q537.1844 28.065624 537.3094 27.26875ZM539.2469 29.55L539.2469 20.95625L540.3094 20.95625L540.3094 25.8625L542.79376 23.33125L544.16876 23.33125L541.77814 25.628124L544.40314 29.55L543.10626 29.55L541.04376 26.3625L540.3094 27.08125L540.3094 29.55L539.2469 29.55ZM549.3094 28.784374Q548.71564 29.284374 548.16876 29.4875Q547.6375 29.690624 547.0125 29.690624Q545.98126 29.690624 545.4344 29.190624Q544.8875 28.690624 544.8875 27.909374Q544.8875 27.45625 545.09064 27.08125Q545.29376 26.690624 545.6375 26.471874Q545.98126 26.2375 546.40314 26.128124Q546.7 26.034374 547.34064 25.95625Q548.60626 25.815624 549.21564 25.596874Q549.21564 25.378124 549.21564 25.33125Q549.21564 24.675 548.91876 24.409374Q548.5125 24.065624 547.71564 24.065624Q546.98126 24.065624 546.6219 24.33125Q546.2625 24.58125 546.09064 25.2375L545.0594 25.096874Q545.2 24.440624 545.52814 24.034374Q545.85626 23.628124 546.46564 23.409374Q547.075 23.190624 547.8719 23.190624Q548.66876 23.190624 549.16876 23.378124Q549.66876 23.565624 549.90314 23.846874Q550.1375 24.128124 550.23126 24.565624Q550.27814 24.83125 550.27814 25.534374L550.27814 26.940624Q550.27814 28.409374 550.34064 28.8Q550.41876 29.190624 550.6219 29.55L549.5125 29.55Q549.35626 29.221874 549.3094 28.784374ZM549.21564 26.425Q548.6375 26.659374 547.4969 26.83125Q546.84064 26.925 546.575 27.05Q546.3094 27.159374 546.15314 27.378124Q546.0125 27.596874 546.0125 27.878124Q546.0125 28.3 546.325 28.58125Q546.65314 28.8625 547.2625 28.8625Q547.8719 28.8625 548.34064 28.596874Q548.825 28.33125 549.04376 27.8625Q549.21564 27.503124 549.21564 26.815624L549.21564 26.425ZM554.54376 28.6125L554.7 29.534374Q554.2469 29.628124 553.90314 29.628124Q553.325 29.628124 553.0125 29.45625Q552.7 29.26875 552.5594 28.971874Q552.4344 28.675 552.4344 27.721874L552.4344 24.14375L551.66876 24.14375L551.66876 23.33125L552.4344 23.33125L552.4344 21.784374L553.48126 21.159374L553.48126 23.33125L554.54376 23.33125L554.54376 24.14375L553.48126 24.14375L553.48126 27.784374Q553.48126 28.2375 553.52814 28.3625Q553.59064 28.4875 553.71564 28.565624Q553.84064 28.64375 554.075 28.64375Q554.2625 28.64375 554.54376 28.6125ZM555.2469 29.55L555.2469 20.95625L556.29376 20.95625L556.29376 24.034374Q557.02814 23.190624 558.15314 23.190624Q558.85626 23.190624 559.35626 23.471874Q559.8719 23.7375 560.09064 24.221874Q560.3094 24.690624 560.3094 25.6125L560.3094 29.55L559.2625 29.55L559.2625 25.6125Q559.2625 24.815624 558.91876 24.45625Q558.575 24.096874 557.95 24.096874Q557.48126 24.096874 557.0594 24.346874Q556.65314 24.58125 556.46564 25.003124Q556.29376 25.409374 556.29376 26.14375L556.29376 29.55L555.2469 29.55ZM561.85626 26.440624Q561.85626 24.70625 562.8094 23.878124Q563.60626 23.190624 564.7625 23.190624Q566.04376 23.190624 566.85626 24.034374Q567.6844 24.8625 567.6844 26.346874Q567.6844 27.55 567.325 28.2375Q566.96564 28.925 566.2625 29.315624Q565.575 29.690624 564.7625 29.690624Q563.46564 29.690624 562.65314 28.8625Q561.85626 28.01875 561.85626 26.440624ZM562.9344 26.440624Q562.9344 27.628124 563.45 28.221874Q563.98126 28.815624 564.7625 28.815624Q565.5594 28.815624 566.075 28.221874Q566.59064 27.628124 566.59064 26.409374Q566.59064 25.253124 566.0594 24.659374Q565.54376 24.065624 564.7625 24.065624Q563.98126 24.065624 563.45 24.659374Q562.9344 25.2375 562.9344 26.440624ZM569.2469 29.55L569.2469 23.33125L570.1844 23.33125L570.1844 24.20625Q570.8719 23.190624 572.16876 23.190624Q572.73126 23.190624 573.2 23.39375Q573.6844 23.596874 573.91876 23.925Q574.15314 24.253124 574.2469 24.690624Q574.29376 24.9875 574.29376 25.721874L574.29376 29.55L573.2469 29.55L573.2469 25.76875Q573.2469 25.1125 573.1219 24.8Q572.9969 24.4875 572.6844 24.3Q572.3719 24.096874 571.95 24.096874Q571.27814 24.096874 570.77814 24.534374Q570.29376 24.95625 570.29376 26.14375L570.29376 29.55L569.2469 29.55ZM575.825 27.690624L576.85626 27.534374Q576.95 28.159374 577.34064 28.4875Q577.7469 28.815624 578.48126 28.815624Q579.2 28.815624 579.54376 28.534374Q579.90314 28.2375 579.90314 27.83125Q579.90314 27.471874 579.59064 27.26875Q579.3719 27.128124 578.5125 26.909374Q577.35626 26.6125 576.90314 26.409374Q576.46564 26.190624 576.23126 25.815624Q575.9969 25.440624 575.9969 24.971874Q575.9969 24.565624 576.1844 24.20625Q576.3719 23.846874 576.7 23.6125Q576.95 23.440624 577.3719 23.315624Q577.79376 23.190624 578.29376 23.190624Q579.0125 23.190624 579.5594 23.409374Q580.1219 23.6125 580.3875 23.971874Q580.65314 24.33125 580.7469 24.925L579.71564 25.065624Q579.65314 24.596874 579.3094 24.33125Q578.98126 24.05 578.35626 24.05Q577.6375 24.05 577.325 24.3Q577.0125 24.534374 577.0125 24.8625Q577.0125 25.065624 577.1375 25.221874Q577.27814 25.39375 577.54376 25.503124Q577.7 25.565624 578.48126 25.76875Q579.60626 26.08125 580.04376 26.26875Q580.48126 26.45625 580.73126 26.815624Q580.98126 27.175 580.98126 27.721874Q580.98126 28.253124 580.66876 28.721874Q580.3719 29.175 579.79376 29.440624Q579.21564 29.690624 578.48126 29.690624Q577.2625 29.690624 576.6219 29.190624Q575.9969 28.675 575.825 27.690624Z" fill-rule="nonzero"/><path fill="#9e9e9e" d="M559.4969 45.534374L559.4969 46.55L553.8094 46.55Q553.8094 46.175 553.9344 45.815624Q554.15314 45.2375 554.6219 44.675Q555.10626 44.1125 556.0125 43.378124Q557.41876 42.221874 557.90314 41.55Q558.40314 40.878124 558.40314 40.284374Q558.40314 39.659374 557.95 39.2375Q557.4969 38.8 556.77814 38.8Q556.0125 38.8 555.5594 39.253124Q555.10626 39.70625 555.09064 40.51875L554.0125 40.409374Q554.1219 39.190624 554.84064 38.565624Q555.575 37.925 556.8094 37.925Q558.04376 37.925 558.7625 38.6125Q559.48126 39.3 559.48126 40.315624Q559.48126 40.83125 559.2625 41.33125Q559.0594 41.815624 558.5594 42.378124Q558.075 42.925 556.95 43.878124Q555.9969 44.675 555.71564 44.971874Q555.45 45.253124 555.27814 45.534374L559.4969 45.534374ZM561.54376 46.55L561.54376 45.346874L562.7469 45.346874L562.7469 46.55L561.54376 46.55ZM569.4969 45.534374L569.4969 46.55L563.8094 46.55Q563.8094 46.175 563.9344 45.815624Q564.15314 45.2375 564.6219 44.675Q565.10626 44.1125 566.0125 43.378124Q567.41876 42.221874 567.90314 41.55Q568.40314 40.878124 568.40314 40.284374Q568.40314 39.659374 567.95 39.2375Q567.4969 38.8 566.77814 38.8Q566.0125 38.8 565.5594 39.253124Q565.10626 39.70625 565.09064 40.51875L564.0125 40.409374Q564.1219 39.190624 564.84064 38.565624Q565.575 37.925 566.8094 37.925Q568.04376 37.925 568.7625 38.6125Q569.48126 39.3 569.48126 40.315624Q569.48126 40.83125 569.2625 41.33125Q569.0594 41.815624 568.5594 42.378124Q568.075 42.925 566.95 43.878124Q565.9969 44.675 565.71564 44.971874Q565.45 45.253124 565.27814 45.534374L569.4969 45.534374ZM571.15314 40.01875Q571.15314 39.096874 571.60626 38.45625Q572.075 37.815624 572.95 37.815624Q573.7625 37.815624 574.29376 38.39375Q574.825 38.971874 574.825 40.08125Q574.825 41.175 574.27814 41.76875Q573.7469 42.346874 572.96564 42.346874Q572.1844 42.346874 571.66876 41.76875Q571.15314 41.190624 571.15314 40.01875ZM572.98126 38.534374Q572.59064 38.534374 572.325 38.878124Q572.075 39.221874 572.075 40.128124Q572.075 40.95625 572.325 41.3Q572.59064 41.628124 572.98126 41.628124Q573.3875 41.628124 573.6375 41.284374Q573.90314 40.940624 573.90314 40.05Q573.90314 39.20625 573.6375 38.878124Q573.3719 38.534374 572.98126 38.534374ZM572.98126 46.8625L577.6844 37.815624L578.54376 37.815624L573.85626 46.8625L572.98126 46.8625ZM576.7 44.534374Q576.7 43.6125 577.15314 42.971874Q577.6219 42.33125 578.5125 42.33125Q579.325 42.33125 579.85626 42.909374Q580.3875 43.471874 580.3875 44.596874Q580.3875 45.690624 579.84064 46.284374Q579.3094 46.8625 578.5125 46.8625Q577.7469 46.8625 577.21564 46.284374Q576.7 45.70625 576.7 44.534374ZM578.54376 43.05Q578.1375 43.05 577.8719 43.39375Q577.6219 43.7375 577.6219 44.64375Q577.6219 45.45625 577.8875 45.8Q578.15314 46.14375 578.54376 46.14375Q578.9344 46.14375 579.2 45.8Q579.46564 45.45625 579.46564 44.55Q579.46564 43.721874 579.2 43.39375Q578.9344 43.05 578.54376 43.05Z" fill-rule="nonzero"/><path stroke="#757575" stroke-width="1.0" stroke-linecap="butt" d="M581.45 34.05L472.95 34.05L310.8759 27.270836" fill-rule="nonzero"/><path fill="#9e9e9e" d="M312.8759 27.270836C312.8759 26.166267 311.98044 25.270836 310.8759 25.270836C309.7713 25.270836 308.8759 26.166267 308.8759 27.270836C308.8759 28.375406 309.7713 29.270836 310.8759 29.270836C311.98044 29.270836 312.8759 28.375406 312.8759 27.270836" fill-rule="nonzero"/><path fill="#1a1a1a" d="M550.40314 57.175L550.40314 56.175L554.02814 56.159374L554.02814 59.346874Q553.2 60.01875 552.3094 60.3625Q551.41876 60.690624 550.48126 60.690624Q549.21564 60.690624 548.16876 60.159374Q547.1375 59.6125 546.60626 58.596874Q546.09064 57.565624 546.09064 56.3Q546.09064 55.034374 546.60626 53.95625Q547.1375 52.8625 548.1219 52.346874Q549.10626 51.815624 550.3875 51.815624Q551.325 51.815624 552.075 52.1125Q552.825 52.409374 553.2469 52.95625Q553.6844 53.4875 553.90314 54.3625L552.8875 54.64375Q552.6844 53.9875 552.3875 53.6125Q552.10626 53.2375 551.575 53.01875Q551.04376 52.784374 550.40314 52.784374Q549.6219 52.784374 549.04376 53.01875Q548.48126 53.253124 548.1219 53.64375Q547.77814 54.034374 547.59064 54.503124Q547.2625 55.3 547.2625 56.221874Q547.2625 57.378124 547.65314 58.159374Q548.0594 58.925 548.8094 59.3Q549.5594 59.675 550.41876 59.675Q551.15314 59.675 551.85626 59.39375Q552.5594 59.096874 552.91876 58.784374L552.91876 57.175L550.40314 57.175ZM555.23126 60.55L555.23126 54.33125L556.1844 54.33125L556.1844 55.26875Q556.54376 54.6125 556.84064 54.409374Q557.15314 54.190624 557.52814 54.190624Q558.0594 54.190624 558.60626 54.51875L558.2469 55.503124Q557.85626 55.26875 557.48126 55.26875Q557.1219 55.26875 556.84064 55.4875Q556.575 55.690624 556.46564 56.065624Q556.27814 56.628124 556.27814 57.284374L556.27814 60.55L555.23126 60.55ZM563.3094 59.784374Q562.71564 60.284374 562.16876 60.4875Q561.6375 60.690624 561.0125 60.690624Q559.98126 60.690624 559.4344 60.190624Q558.8875 59.690624 558.8875 58.909374Q558.8875 58.45625 559.09064 58.08125Q559.29376 57.690624 559.6375 57.471874Q559.98126 57.2375 560.40314 57.128124Q560.7 57.034374 561.34064 56.95625Q562.60626 56.815624 563.21564 56.596874Q563.21564 56.378124 563.21564 56.33125Q563.21564 55.675 562.91876 55.409374Q562.5125 55.065624 561.71564 55.065624Q560.98126 55.065624 560.6219 55.33125Q560.2625 55.58125 560.09064 56.2375L559.0594 56.096874Q559.2 55.440624 559.52814 55.034374Q559.85626 54.628124 560.46564 54.409374Q561.075 54.190624 561.8719 54.190624Q562.66876 54.190624 563.16876 54.378124Q563.66876 54.565624 563.90314 54.846874Q564.1375 55.128124 564.23126 55.565624Q564.27814 55.83125 564.27814 56.534374L564.27814 57.940624Q564.27814 59.409374 564.34064 59.8Q564.41876 60.190624 564.6219 60.55L563.5125 60.55Q563.35626 60.221874 563.3094 59.784374ZM563.21564 57.425Q562.6375 57.659374 561.4969 57.83125Q560.84064 57.925 560.575 58.05Q560.3094 58.159374 560.15314 58.378124Q560.0125 58.596874 560.0125 58.878124Q560.0125 59.3 560.325 59.58125Q560.65314 59.8625 561.2625 59.8625Q561.8719 59.8625 562.34064 59.596874Q562.825 59.33125 563.04376 58.8625Q563.21564 58.503124 563.21564 57.815624L563.21564 57.425ZM566.2469 60.55L566.2469 54.33125L567.1844 54.33125L567.1844 55.20625Q567.8719 54.190624 569.16876 54.190624Q569.73126 54.190624 570.2 54.39375Q570.6844 54.596874 570.91876 54.925Q571.15314 55.253124 571.2469 55.690624Q571.29376 55.9875 571.29376 56.721874L571.29376 60.55L570.2469 60.55L570.2469 56.76875Q570.2469 56.1125 570.1219 55.8Q569.9969 55.4875 569.6844 55.3Q569.3719 55.096874 568.95 55.096874Q568.27814 55.096874 567.77814 55.534374Q567.29376 55.95625 567.29376 57.14375L567.29376 60.55L566.2469 60.55ZM575.54376 59.6125L575.7 60.534374Q575.2469 60.628124 574.90314 60.628124Q574.325 60.628124 574.0125 60.45625Q573.7 60.26875 573.5594 59.971874Q573.4344 59.675 573.4344 58.721874L573.4344 55.14375L572.66876 55.14375L572.66876 54.33125L573.4344 54.33125L573.4344 52.784374L574.48126 52.159374L574.48126 54.33125L575.54376 54.33125L575.54376 55.14375L574.48126 55.14375L574.48126 58.784374Q574.48126 59.2375 574.52814 59.3625Q574.59064 59.4875 574.71564 59.565624Q574.84064 59.64375 575.075 59.64375Q575.2625 59.64375 575.54376 59.6125ZM575.825 58.690624L576.85626 58.534374Q576.95 59.159374 577.34064 59.4875Q577.7469 59.815624 578.48126 59.815624Q579.2 59.815624 579.54376 59.534374Q579.90314 59.2375 579.90314 58.83125Q579.90314 58.471874 579.59064 58.26875Q579.3719 58.128124 578.5125 57.909374Q577.35626 57.6125 576.90314 57.409374Q576.46564 57.190624 576.23126 56.815624Q575.9969 56.440624 575.9969 55.971874Q575.9969 55.565624 576.1844 55.20625Q576.3719 54.846874 576.7 54.6125Q576.95 54.440624 577.3719 54.315624Q577.79376 54.190624 578.29376 54.190624Q579.0125 54.190624 579.5594 54.409374Q580.1219 54.6125 580.3875 54.971874Q580.65314 55.33125 580.7469 55.925L579.71564 56.065624Q579.65314 55.596874 579.3094 55.33125Q578.98126 55.05 578.35626 55.05Q577.6375 55.05 577.325 55.3Q577.0125 55.534374 577.0125 55.8625Q577.0125 56.065624 577.1375 56.221874Q577.27814 56.39375 577.54376 56.503124Q577.7 56.565624 578.48126 56.76875Q579.60626 57.08125 580.04376 57.26875Q580.48126 57.45625 580.73126 57.815624Q580.98126 58.175 580.98126 58.721874Q580.98126 59.253124 580.66876 59.721874Q580.3719 60.175 579.79376 60.440624Q579.21564 60.690624 578.48126 60.690624Q577.2625 60.690624 576.6219 60.190624Q575.9969 59.675 575.825 58.690624Z" fill-rule="nonzero"/><path fill="#9e9e9e" d="M550.91876 77.55L549.8719 77.55L549.8719 70.83125Q549.48126 71.19063 548.85626 71.56563Q548.2469 71.925 547.7625 72.09688L547.7625 71.08125Q548.6375 70.65938 549.29376 70.08125Q549.96564 69.4875 550.2469 68.925L550.91876 68.925L550.91876 77.55ZM559.4969 76.53438L559.4969 77.55L553.8094 77.55Q553.8094 77.175 553.9344 76.81563Q554.15314 76.2375 554.6219 75.675Q555.10626 75.1125 556.0125 74.37813Q557.41876 73.22188 557.90314 72.55Q558.40314 71.87813 558.40314 71.28438Q558.40314 70.65938 557.95 70.2375Q557.4969 69.8 556.77814 69.8Q556.0125 69.8 555.5594 70.25313Q555.10626 70.70625 555.09064 71.51875L554.0125 71.40938Q554.1219 70.19063 554.84064 69.56563Q555.575 68.925 556.8094 68.925Q558.04376 68.925 558.7625 69.6125Q559.48126 70.3 559.48126 71.31563Q559.48126 71.83125 559.2625 72.33125Q559.0594 72.81563 558.5594 73.37813Q558.075 73.925 556.95 74.87813Q555.9969 75.675 555.71564 75.97188Q555.45 76.25313 555.27814 76.53438L559.4969 76.53438ZM561.54376 77.55L561.54376 76.34688L562.7469 76.34688L562.7469 77.55L561.54376 77.55ZM567.325 77.55L567.325 75.4875L563.60626 75.4875L563.60626 74.51875L567.52814 68.95625L568.3875 68.95625L568.3875 74.51875L569.54376 74.51875L569.54376 75.4875L568.3875 75.4875L568.3875 77.55L567.325 77.55ZM567.325 74.51875L567.325 70.65938L564.6375 74.51875L567.325 74.51875ZM571.15314 71.01875Q571.15314 70.09688 571.60626 69.45625Q572.075 68.81563 572.95 68.81563Q573.7625 68.81563 574.29376 69.39375Q574.825 69.97188 574.825 71.08125Q574.825 72.175 574.27814 72.76875Q573.7469 73.34688 572.96564 73.34688Q572.1844 73.34688 571.66876 72.76875Q571.15314 72.19063 571.15314 71.01875ZM572.98126 69.53438Q572.59064 69.53438 572.325 69.87813Q572.075 70.22188 572.075 71.12813Q572.075 71.95625 572.325 72.3Q572.59064 72.62813 572.98126 72.62813Q573.3875 72.62813 573.6375 72.28438Q573.90314 71.94063 573.90314 71.05Q573.90314 70.20625 573.6375 69.87813Q573.3719 69.53438 572.98126 69.53438ZM572.98126 77.8625L577.6844 68.81563L578.54376 68.81563L573.85626 77.8625L572.98126 77.8625ZM576.7 75.53438Q576.7 74.6125 577.15314 73.97188Q577.6219 73.33125 578.5125 73.33125Q579.325 73.33125 579.85626 73.90938Q580.3875 74.47188 580.3875 75.59688Q580.3875 76.69063 579.84064 77.28438Q579.3094 77.8625 578.5125 77.8625Q577.7469 77.8625 577.21564 77.28438Q576.7 76.70625 576.7 75.53438ZM578.54376 74.05Q578.1375 74.05 577.8719 74.39375Q577.6219 74.7375 577.6219 75.64375Q577.6219 76.45625 577.8875 76.8Q578.15314 77.14375 578.54376 77.14375Q578.9344 77.14375 579.2 76.8Q579.46564 76.45625 579.46564 75.55Q579.46564 74.72188 579.2 74.39375Q578.9344 74.05 578.54376 74.05Z" fill-rule="nonzero"/><path stroke="#757575" stroke-width="1.0" stroke-linecap="butt" d="M581.45 65.05L472.95 65.05L379.65012 48.348213" fill-rule="nonzero"/><path fill="#9e9e9e" d="M381.65012 48.348213C381.65012 47.243645 380.75467 46.348213 379.65012 46.348213C378.54553 46.348213 377.65012 47.243645 377.65012 48.348213C377.65012 49.45278 378.54553 50.348213 379.65012 50.348213C380.75467 50.348213 381.65012 49.45278 381.65012 48.348213" fill-rule="nonzero"/><path fill="#1a1a1a" d="M536.9969 241.71103L538.0594 241.61728Q538.1375 242.27353 538.41876 242.67978Q538.7 243.08603 539.27814 243.35165Q539.8719 243.60165 540.60626 243.60165Q541.2469 243.60165 541.7469 243.41415Q542.2469 243.21103 542.48126 242.8829Q542.73126 242.53915 542.73126 242.14853Q542.73126 241.74228 542.4969 241.4454Q542.2625 241.1329 541.73126 240.92978Q541.3719 240.78915 540.1844 240.5079Q539.0125 240.22665 538.54376 239.97665Q537.91876 239.64853 537.6219 239.17978Q537.325 238.6954 537.325 238.10165Q537.325 237.46103 537.6844 236.89853Q538.0594 236.3204 538.7625 236.03915Q539.48126 235.74228 540.34064 235.74228Q541.29376 235.74228 542.02814 236.05478Q542.7625 236.35165 543.15314 236.96103Q543.54376 237.55478 543.575 238.30478L542.48126 238.3829Q542.3875 237.5704 541.8719 237.16415Q541.3719 236.74228 540.3875 236.74228Q539.35626 236.74228 538.8875 237.11728Q538.41876 237.49228 538.41876 238.02353Q538.41876 238.49228 538.7469 238.78915Q539.075 239.08603 540.45 239.39853Q541.84064 239.71103 542.35626 239.9454Q543.10626 240.30478 543.46564 240.83603Q543.825 241.35165 543.825 242.05478Q543.825 242.74228 543.4344 243.35165Q543.04376 243.9454 542.3094 244.28915Q541.575 244.61728 540.65314 244.61728Q539.48126 244.61728 538.6844 244.28915Q537.90314 243.9454 537.45 243.2579Q537.0125 242.5704 536.9969 241.71103ZM549.3094 243.71103Q548.71564 244.21103 548.16876 244.41415Q547.6375 244.61728 547.0125 244.61728Q545.98126 244.61728 545.4344 244.11728Q544.8875 243.61728 544.8875 242.83603Q544.8875 242.3829 545.09064 242.0079Q545.29376 241.61728 545.6375 241.39853Q545.98126 241.16415 546.40314 241.05478Q546.7 240.96103 547.34064 240.8829Q548.60626 240.74228 549.21564 240.52353Q549.21564 240.30478 549.21564 240.2579Q549.21564 239.60165 548.91876 239.33603Q548.5125 238.99228 547.71564 238.99228Q546.98126 238.99228 546.6219 239.2579Q546.2625 239.5079 546.09064 240.16415L545.0594 240.02353Q545.2 239.36728 545.52814 238.96103Q545.85626 238.55478 546.46564 238.33603Q547.075 238.11728 547.8719 238.11728Q548.66876 238.11728 549.16876 238.30478Q549.66876 238.49228 549.90314 238.77353Q550.1375 239.05478 550.23126 239.49228Q550.27814 239.7579 550.27814 240.46103L550.27814 241.86728Q550.27814 243.33603 550.34064 243.72665Q550.41876 244.11728 550.6219 244.47665L549.5125 244.47665Q549.35626 244.14853 549.3094 243.71103ZM549.21564 241.35165Q548.6375 241.58603 547.4969 241.7579Q546.84064 241.85165 546.575 241.97665Q546.3094 242.08603 546.15314 242.30478Q546.0125 242.52353 546.0125 242.80478Q546.0125 243.22665 546.325 243.5079Q546.65314 243.78915 547.2625 243.78915Q547.8719 243.78915 548.34064 243.52353Q548.825 243.2579 549.04376 242.78915Q549.21564 242.42978 549.21564 241.74228L549.21564 241.35165ZM552.21564 244.47665L552.21564 235.8829L553.27814 235.8829L553.27814 244.47665L552.21564 244.47665ZM559.3094 243.71103Q558.71564 244.21103 558.16876 244.41415Q557.6375 244.61728 557.0125 244.61728Q555.98126 244.61728 555.4344 244.11728Q554.8875 243.61728 554.8875 242.83603Q554.8875 242.3829 555.09064 242.0079Q555.29376 241.61728 555.6375 241.39853Q555.98126 241.16415 556.40314 241.05478Q556.7 240.96103 557.34064 240.8829Q558.60626 240.74228 559.21564 240.52353Q559.21564 240.30478 559.21564 240.2579Q559.21564 239.60165 558.91876 239.33603Q558.5125 238.99228 557.71564 238.99228Q556.98126 238.99228 556.6219 239.2579Q556.2625 239.5079 556.09064 240.16415L555.0594 240.02353Q555.2 239.36728 555.52814 238.96103Q555.85626 238.55478 556.46564 238.33603Q557.075 238.11728 557.8719 238.11728Q558.66876 238.11728 559.16876 238.30478Q559.66876 238.49228 559.90314 238.77353Q560.1375 239.05478 560.23126 239.49228Q560.27814 239.7579 560.27814 240.46103L560.27814 241.86728Q560.27814 243.33603 560.34064 243.72665Q560.41876 244.11728 560.6219 244.47665L559.5125 244.47665Q559.35626 244.14853 559.3094 243.71103ZM559.21564 241.35165Q558.6375 241.58603 557.4969 241.7579Q556.84064 241.85165 556.575 241.97665Q556.3094 242.08603 556.15314 242.30478Q556.0125 242.52353 556.0125 242.80478Q556.0125 243.22665 556.325 243.5079Q556.65314 243.78915 557.2625 243.78915Q557.8719 243.78915 558.34064 243.52353Q558.825 243.2579 559.04376 242.78915Q559.21564 242.42978 559.21564 241.74228L559.21564 241.35165ZM562.23126 244.47665L562.23126 238.2579L563.1844 238.2579L563.1844 239.1954Q563.54376 238.53915 563.84064 238.33603Q564.15314 238.11728 564.52814 238.11728Q565.0594 238.11728 565.60626 238.4454L565.2469 239.42978Q564.85626 239.1954 564.48126 239.1954Q564.1219 239.1954 563.84064 239.41415Q563.575 239.61728 563.46564 239.99228Q563.27814 240.55478 563.27814 241.21103L563.27814 244.47665L562.23126 244.47665ZM566.2469 237.10165L566.2469 235.8829L567.3094 235.8829L567.3094 237.10165L566.2469 237.10165ZM566.2469 244.47665L566.2469 238.2579L567.3094 238.2579L567.3094 244.47665L566.2469 244.47665ZM573.4969 242.47665L574.59064 242.60165Q574.34064 243.55478 573.6375 244.08603Q572.9344 244.61728 571.85626 244.61728Q570.4969 244.61728 569.6844 243.77353Q568.8875 242.92978 568.8875 241.41415Q568.8875 239.85165 569.7 238.99228Q570.5125 238.11728 571.79376 238.11728Q573.04376 238.11728 573.825 238.96103Q574.6219 239.80478 574.6219 241.35165Q574.6219 241.4454 574.6219 241.6329L569.98126 241.6329Q570.04376 242.66415 570.5594 243.21103Q571.075 243.74228 571.85626 243.74228Q572.4344 243.74228 572.84064 243.4454Q573.2625 243.1329 573.4969 242.47665ZM570.04376 240.77353L573.5125 240.77353Q573.45 239.97665 573.1219 239.58603Q572.60626 238.97665 571.8094 238.97665Q571.075 238.97665 570.575 239.46103Q570.09064 239.9454 570.04376 240.77353ZM575.825 242.61728L576.85626 242.46103Q576.95 243.08603 577.34064 243.41415Q577.7469 243.74228 578.48126 243.74228Q579.2 243.74228 579.54376 243.46103Q579.90314 243.16415 579.90314 242.7579Q579.90314 242.39853 579.59064 242.1954Q579.3719 242.05478 578.5125 241.83603Q577.35626 241.53915 576.90314 241.33603Q576.46564 241.11728 576.23126 240.74228Q575.9969 240.36728 575.9969 239.89853Q575.9969 239.49228 576.1844 239.1329Q576.3719 238.77353 576.7 238.53915Q576.95 238.36728 577.3719 238.24228Q577.79376 238.11728 578.29376 238.11728Q579.0125 238.11728 579.5594 238.33603Q580.1219 238.53915 580.3875 238.89853Q580.65314 239.2579 580.7469 239.85165L579.71564 239.99228Q579.65314 239.52353 579.3094 239.2579Q578.98126 238.97665 578.35626 238.97665Q577.6375 238.97665 577.325 239.22665Q577.0125 239.46103 577.0125 239.78915Q577.0125 239.99228 577.1375 240.14853Q577.27814 240.3204 577.54376 240.42978Q577.7 240.49228 578.48126 240.6954Q579.60626 241.0079 580.04376 241.1954Q580.48126 241.3829 580.73126 241.74228Q580.98126 242.10165 580.98126 242.64853Q580.98126 243.17978 580.66876 243.64853Q580.3719 244.10165 579.79376 244.36728Q579.21564 244.61728 578.48126 244.61728Q577.2625 244.61728 576.6219 244.11728Q575.9969 243.60165 575.825 242.61728Z" fill-rule="nonzero"/><path fill="#9e9e9e" d="M546.95 259.21103L548.0125 259.0704Q548.1844 259.96103 548.6219 260.36728Q549.0594 260.7579 549.6844 260.7579Q550.4344 260.7579 550.95 260.24228Q551.46564 259.72665 551.46564 258.96103Q551.46564 258.24228 550.98126 257.77353Q550.5125 257.28915 549.77814 257.28915Q549.48126 257.28915 549.02814 257.41415L549.15314 256.47665Q549.2625 256.49228 549.325 256.49228Q549.9969 256.49228 550.52814 256.14853Q551.075 255.78915 551.075 255.05478Q551.075 254.47665 550.6844 254.10165Q550.29376 253.71103 549.66876 253.71103Q549.0594 253.71103 548.6375 254.10165Q548.23126 254.49228 548.1219 255.2579L547.0594 255.0704Q547.2469 254.02353 547.9344 253.4454Q548.6219 252.85165 549.6375 252.85165Q550.34064 252.85165 550.9344 253.16415Q551.52814 253.46103 551.84064 253.97665Q552.15314 254.49228 552.15314 255.08603Q552.15314 255.6329 551.85626 256.10165Q551.5594 256.55478 550.98126 256.8204Q551.73126 256.99228 552.15314 257.55478Q552.575 258.10165 552.575 258.9454Q552.575 260.0704 551.7469 260.85165Q550.9344 261.6329 549.6844 261.6329Q548.5594 261.6329 547.8094 260.96103Q547.0594 260.27353 546.95 259.21103ZM557.325 261.47665L557.325 259.41415L553.60626 259.41415L553.60626 258.4454L557.52814 252.8829L558.3875 252.8829L558.3875 258.4454L559.54376 258.4454L559.54376 259.41415L558.3875 259.41415L558.3875 261.47665L557.325 261.47665ZM557.325 258.4454L557.325 254.58603L554.6375 258.4454L557.325 258.4454ZM561.54376 261.47665L561.54376 260.27353L562.7469 260.27353L562.7469 261.47665L561.54376 261.47665ZM563.95 257.24228Q563.95 255.71103 564.2625 254.78915Q564.575 253.85165 565.1844 253.35165Q565.8094 252.85165 566.7469 252.85165Q567.4344 252.85165 567.95 253.1329Q568.48126 253.41415 568.825 253.9454Q569.16876 254.46103 569.35626 255.21103Q569.54376 255.96103 569.54376 257.24228Q569.54376 258.7579 569.23126 259.67978Q568.9344 260.60165 568.3094 261.11728Q567.7 261.61728 566.7469 261.61728Q565.5125 261.61728 564.79376 260.72665Q563.95 259.66415 563.95 257.24228ZM565.02814 257.24228Q565.02814 259.35165 565.52814 260.05478Q566.02814 260.7579 566.7469 260.7579Q567.48126 260.7579 567.96564 260.05478Q568.46564 259.35165 568.46564 257.24228Q568.46564 255.11728 567.96564 254.42978Q567.48126 253.72665 566.73126 253.72665Q566.0125 253.72665 565.575 254.33603Q565.02814 255.11728 565.02814 257.24228ZM571.15314 254.9454Q571.15314 254.02353 571.60626 253.3829Q572.075 252.74228 572.95 252.74228Q573.7625 252.74228 574.29376 253.3204Q574.825 253.89853 574.825 255.0079Q574.825 256.10165 574.27814 256.6954Q573.7469 257.27353 572.96564 257.27353Q572.1844 257.27353 571.66876 256.6954Q571.15314 256.11728 571.15314 254.9454ZM572.98126 253.46103Q572.59064 253.46103 572.325 253.80478Q572.075 254.14853 572.075 255.05478Q572.075 255.8829 572.325 256.22665Q572.59064 256.55478 572.98126 256.55478Q573.3875 256.55478 573.6375 256.21103Q573.90314 255.86728 573.90314 254.97665Q573.90314 254.1329 573.6375 253.80478Q573.3719 253.46103 572.98126 253.46103ZM572.98126 261.78915L577.6844 252.74228L578.54376 252.74228L573.85626 261.78915L572.98126 261.78915ZM576.7 259.46103Q576.7 258.53915 577.15314 257.89853Q577.6219 257.2579 578.5125 257.2579Q579.325 257.2579 579.85626 257.83603Q580.3875 258.39853 580.3875 259.52353Q580.3875 260.61728 579.84064 261.21103Q579.3094 261.78915 578.5125 261.78915Q577.7469 261.78915 577.21564 261.21103Q576.7 260.6329 576.7 259.46103ZM578.54376 257.97665Q578.1375 257.97665 577.8719 258.3204Q577.6219 258.66415 577.6219 259.5704Q577.6219 260.3829 577.8875 260.72665Q578.15314 261.0704 578.54376 261.0704Q578.9344 261.0704 579.2 260.72665Q579.46564 260.3829 579.46564 259.47665Q579.46564 258.64853 579.2 258.3204Q578.9344 257.97665 578.54376 257.97665Z" fill-rule="nonzero"/><path stroke="#757575" stroke-width="1.0" stroke-linecap="butt" d="M581.45 248.97665L472.95 248.97665L445.34604 248.97665" fill-rule="nonzero"/><path fill="#9e9e9e" d="M447.34604 248.97665C447.34604 247.87209 446.4506 246.97665 445.34604 246.97665C444.24146 246.97665 443.34604 247.87209 443.34604 248.97665C443.34604 250.08122 444.24146 250.97665 445.34604 250.97665C446.4506 250.97665 447.34604 250.08122 447.34604 248.97665" fill-rule="nonzero"/></svg>