<svg width="200" height="210" viewBox="0 0 200 210" fill="none" xmlns="http://www.w3.org/2000/svg">
<path d="M106.392 73.7031H102.965C98.8701 87.9939 87.6297 99.2342 73.339 103.329V106.756C87.6297 110.851 98.8701 122.091 102.965 136.382H106.392C110.487 122.091 121.727 110.851 136.018 106.756V103.329C121.727 99.2342 110.487 87.9939 106.392 73.7031Z" fill="#070909"/>
<path d="M161.55 118.664C155.408 144.362 132.3 163.5 104.722 163.5C72.4211 163.5 46.2215 137.3 46.2215 105C46.2215 72.6996 72.4211 46.5 104.722 46.5C132.3 46.5 155.366 65.6378 161.55 91.3361C176.133 83.8982 189.087 73.7443 199.701 61.4593C183.195 25.5235 146.883 0.535645 104.763 0.535645C47.0572 0.535645 0.29895 47.2939 0.29895 105C0.29895 162.706 47.0572 209.464 104.763 209.464C146.925 209.464 183.195 184.477 199.701 148.541C189.087 136.256 176.175 126.06 161.592 118.622L161.55 118.664Z" fill="#070909"/>
</svg>
