<?xml version="1.0" encoding="UTF-8"?>
<svg id="Layer_1" xmlns="http://www.w3.org/2000/svg" version="1.1" xmlns:xlink="http://www.w3.org/1999/xlink" viewBox="0 0 27 27">
  <!-- Generator: Adobe Illustrator 29.2.1, SVG Export Plug-In . SVG Version: 2.1.0 Build 116)  -->
  <defs>
    <style>
      .st0, .st1 {
        fill-rule: evenodd;
        stroke: #2e2e2e;
        stroke-width: .4px;
      }

      .st0, .st2 {
        fill: #2e2e2e;
      }

      .st3, .st1 {
        fill: #ffaf76;
      }

      .st4 {
        fill: none;
      }

      .st5 {
        fill: #ae6eff;
      }

      .st6 {
        fill: #ff6ed4;
      }

      .st7 {
        fill: #4343e8;
      }

      .st8 {
        clip-path: url(#clippath);
      }
    </style>
    <clipPath id="clippath">
      <rect class="st4" width="27" height="27"/>
    </clipPath>
  </defs>
  <g class="st8">
    <g>
      <path class="st3" d="M27,13.5c0,7.5-6,13.5-13.5,13.5S0,21,0,13.5,6,0,13.5,0s13.5,6,13.5,13.5Z"/>
      <path class="st6" d="M25.5,13.5c0,6.6-5.4,12-12,12S1.5,20.1,1.5,13.5,6.9,1.5,13.5,1.5s12,5.4,12,12Z"/>
      <path class="st5" d="M24,13.5c0,5.8-4.7,10.5-10.5,10.5S3,19.3,3,13.5,7.7,3,13.5,3s10.5,4.7,10.5,10.5Z"/>
      <path class="st7" d="M22.5,13.5c0,5-4,9-9,9s-9-4-9-9S8.5,4.5,13.5,4.5s9,4,9,9Z"/>
      <path class="st0" d="M6.7,6.1v1.3l2.8,2.9,2.4,2.6v4.9h3.2v-4.9l2.6-2.6,2.6-2.5v-1.5l-1.5-1.5-2.9,3c-1.2,1.3-2.3,2.3-2.3,2.3s-1-1-2.3-2.3c-1.2-1.3-3-3.1-3.1-3.1s-1,.9-1.6,1.5ZM6.6,11.4c-.3.7-.5,1.4-.7,2.1-.4,3.8.4,5.8,1.7,7.6.2.3.9,1,1.2,1.2,1.3,1,2.7,1.6,4.3,1.7,1,0,1.9,0,2.9-.4,2.7-.9,4.7-3.3,5.1-6.2.2-1.1.2-3.4-.3-4.9-.1-.4-.4-1.1-.5-1.3h0c0,0-1.1,1.1-1.1,1.1-.9.9-1.1,1.2-1.1,1.2,0,.3.1.7.2,1.1,0,.8,0,3-.4,3.7-.6,1.3-1.8,2.3-3.3,2.6-.3,0-.3,0-.9,0-.5,0-.6,0-.9,0-1.4-.3-2.6-1.2-3.2-2.5-.3-.6-.6-2.6-.6-3.3,0-.5,0-.8.1-1.2v-.3c0,0-1.1-1.2-1.1-1.2-.6-.6-1.2-1.2-1.2-1.2s0,.1-.1.3Z"/>
      <path class="st1" d="M7.9,5l-1.1,1.1,2.6,2.6,2.6,2.6v4.9h3v-4.9l2.6-2.6,2.6-2.6-1.1-1.1-1.1-1.1-2.3,2.3c-1.2,1.3-2.3,2.3-2.3,2.3s-1-1-2.3-2.3c-1.2-1.3-2.3-2.3-2.3-2.3s-.5.5-1.1,1.1ZM6.7,11.3c-.3.7-.5,1.4-.7,2.1-.4,2.2.2,4.4,1.6,6.1.2.3.9,1,1.2,1.2,1.3,1,2.7,1.6,4.3,1.7,1,0,1.9,0,2.9-.4,2.7-.9,4.7-3.3,5.1-6.2.2-1.1,0-2.3-.3-3.4-.1-.4-.4-1.1-.5-1.3h0c0,0-1.1,1.1-1.1,1.1-.9.9-1.1,1.2-1.1,1.2,0,.3.1.7.2,1.1,0,.8,0,1.5-.4,2.2-.6,1.3-1.8,2.3-3.3,2.6-.3,0-.3,0-.9,0-.5,0-.6,0-.9,0-1.4-.3-2.6-1.2-3.2-2.5-.3-.6-.4-1.2-.4-1.9,0-.5,0-.8.1-1.2v-.3c0,0-1.1-1.2-1.1-1.2-.6-.6-1.2-1.2-1.2-1.2s0,.1-.1.3Z"/>
      <path class="st2" d="M18.3,14h-3,2.2v-.7h-.7v-.7h-.7v-.7h-.7v-.7h-.7v-.7h-.7v-.7h-.7v1.5-.7h-.7v.7h-.7v.7h-.7v.7h-.7v.7h-.7v.7h2.2-3v.7h3v3h3.7v-3h3v-.7Z"/>
      <path class="st2" d="M13.1,10.3h-.7v.7h.7v-.7Z"/>
      <path class="st2" d="M13.9,9.6h-.7v.7h.7v-.7Z"/>
      <path class="st2" d="M12.4,11.1h-.7v.7h.7v-.7Z"/>
      <path class="st2" d="M11.7,11.8h-.7v.7h.7v-.7Z"/>
      <path class="st2" d="M10.9,12.6h-.7v.7h.7v-.7Z"/>
      <path class="st2" d="M10.2,13.3h-.7v.7h.7v-.7Z"/>
      <path class="st2" d="M12.4,13.8h-3.7v.7h3.7v-.7Z"/>
      <path class="st2" d="M15.4,17h-3.7v.7h3.7v-.7Z"/>
      <path class="st2" d="M12.4,14.8h-.7v3h.7v-3Z"/>
      <path class="st2" d="M14.6,10.3h-.7v.7h.7v-.7Z"/>
      <path class="st2" d="M15.4,11.1h-.7v.7h.7v-.7Z"/>
      <path class="st2" d="M16.1,11.8h-.7v.7h.7v-.7Z"/>
      <path class="st2" d="M16.8,12.6h-.7v.7h.7v-.7Z"/>
      <path class="st2" d="M17.6,13.3h-.7v.7h.7v-.7Z"/>
      <path class="st2" d="M18.3,13.5h-3.7v.7h3.7v-.7Z"/>
      <path class="st2" d="M15.4,14.8h-.7v3h.7v-3Z"/>
      <path class="st3" d="M18.3,13.1h-3,2.2v-.7h-.7v-.7h-.7v-.7h-.7v-.7h-.7v-.7h-.7v-.7h-.7v1.5-.7h-.7v.7h-.7v.7h-.7v.7h-.7v.7h-.7v.7h2.2-3v.7h3v3h3.7v-3h3v-.7Z"/>
      <path class="st2" d="M13.1,9.4h-.7v.7h.7v-.7Z"/>
      <path class="st2" d="M13.9,8.7h-.7v.7h.7v-.7Z"/>
      <path class="st2" d="M12.4,10.2h-.7v.7h.7v-.7Z"/>
      <path class="st2" d="M11.7,10.9h-.7v.7h.7v-.7Z"/>
      <path class="st2" d="M10.9,11.7h-.7v.7h.7v-.7Z"/>
      <path class="st2" d="M10.2,12.4h-.7v.7h.7v-.7Z"/>
      <path class="st2" d="M12.4,13.1h-3.7v.7h3.7v-.7Z"/>
      <path class="st2" d="M15.4,16.1h-3.7v.7h3.7v-.7Z"/>
      <path class="st2" d="M12.4,13.9h-.7v3h.7v-3Z"/>
      <path class="st2" d="M14.6,9.4h-.7v.7h.7v-.7Z"/>
      <path class="st2" d="M15.4,10.2h-.7v.7h.7v-.7Z"/>
      <path class="st2" d="M16.1,10.9h-.7v.7h.7v-.7Z"/>
      <path class="st2" d="M16.8,11.7h-.7v.7h.7v-.7Z"/>
      <path class="st2" d="M17.6,12.4h-.7v.7h.7v-.7Z"/>
      <path class="st2" d="M18.3,13.1h-3.7v.7h3.7v-.7Z"/>
      <path class="st2" d="M15.4,13.9h-.7v3h.7v-3Z"/>
    </g>
  </g>
</svg>