<?xml version="1.0" encoding="UTF-8"?>
<svg id="Layer_1" data-name="Layer 1" xmlns="http://www.w3.org/2000/svg" version="1.1" viewBox="0 0 359.7 359.7">
  <defs>
    <style>
      .cls-1 { fill: #000; stroke-width: 0px; }
    </style>
  </defs>
  <path class="cls-1" d="M314.5,138.3l-46.6,45.6c2.6,8.3,3.9,17.1,3.9,26,0,24-9.6,46.6-27,63.6-17.4,17-40.5,26.3-65.1,26.3s-47.7-9.4-65.1-26.3c-17.4-17-27-39.6-27-63.6s1.3-17.7,3.9-26l-46.7-45.6c-11.8,21.3-18.6,45.7-18.6,71.6,0,82.8,68.7,149.8,153.4,149.8s153.4-67.1,153.4-149.8-6.7-50.3-18.6-71.6h0Z"/>
  <polygon class="cls-1" points="149.1 239.8 210.4 239.8 210.4 144.5 314.9 42.4 271.5 0 179.8 89.6 88 0 44.6 42.4 149.1 144.4 149.1 239.8"/>
</svg>